<svg xmlns="http://www.w3.org/2000/svg" xmlns:xlink="http://www.w3.org/1999/xlink" id="Layer_1" width="123.38" height="123.38" x="0" style="enable-background:new 0 0 123.38 123.38" y="0" version="1.1" viewBox="0 0 123.38 123.38" xml:space="preserve"><style type="text/css">.st0{opacity:.65}.st1{opacity:.5;fill:url(#SVGID_1_)}.st2{opacity:.08}.st3{clip-path:url(#SVGID_3_);fill:none;stroke:#1b1f8a;stroke-width:.299;stroke-miterlimit:10}.st4{fill:none;stroke:#8c8fc5;stroke-width:.8417;stroke-linecap:round;stroke-miterlimit:3.3}</style><g><g class="st0"><radialGradient id="SVGID_1_" cx="61.688" cy="61.688" r="60.083" gradientUnits="userSpaceOnUse"><stop offset="0" style="stop-color:#1b1f8a;stop-opacity:0"/><stop offset=".25" style="stop-color:#1b1f8a;stop-opacity:.01"/><stop offset=".375" style="stop-color:#1b1f8a;stop-opacity:.01"/><stop offset=".5" style="stop-color:#1b1f8a;stop-opacity:.03"/><stop offset=".625" style="stop-color:#1b1f8a;stop-opacity:.06"/><stop offset=".75" style="stop-color:#1b1f8a;stop-opacity:.13"/><stop offset=".875" style="stop-color:#1b1f8a;stop-opacity:.35"/><stop offset="1" style="stop-color:#1b1f8a"/></radialGradient><path d="M121.77,61.69c0-15.94-6.33-31.22-17.6-42.49C92.91,7.94,77.62,1.6,61.69,1.6S30.47,7.94,19.2,19.2 C7.94,30.47,1.6,45.75,1.6,61.69s6.33,31.22,17.6,42.49c11.27,11.27,26.55,17.6,42.49,17.6s31.22-6.33,42.49-17.6 C115.44,92.91,121.77,77.62,121.77,61.69z" class="st1"/></g><g><g class="st2"><defs><circle id="SVGID_2_" cx="61.69" cy="61.69" r="60.08" class="st2"/></defs><clipPath id="SVGID_3_"><use xlink:href="#SVGID_2_" style="overflow:visible"/></clipPath><circle cx="137.85" cy="61.69" r="47.07" class="st3"/><circle cx="108.76" cy="108.76" r="29.09" class="st3"/><circle cx="61.69" cy="137.85" r="47.07" class="st3"/><circle cx="119.87" cy="79.67" r="11.11" class="st3"/><circle cx="123.31" cy="61.69" r="14.55" class="st3"/><circle cx="108.76" cy="99.77" r="8.99" class="st3"/><circle cx="99.77" cy="108.76" r="8.99" class="st3"/><circle cx="114.32" cy="90.78" r="5.56" class="st3"/><circle cx="61.69" cy="123.31" r="14.55" class="st3"/><circle cx="79.67" cy="119.87" r="11.11" class="st3"/><circle cx="81.08" cy="118.46" r="3.7" class="st3"/><circle cx="76.23" cy="119.87" r="3.43" class="st3"/><circle cx="90.78" cy="114.32" r="5.56" class="st3"/><circle cx="85.22" cy="116.8" r="2.48" class="st3"/><circle cx="-14.48" cy="61.69" r="47.07" class="st3"/><circle cx="14.62" cy="108.76" r="29.09" class="st3"/><circle cx="3.5" cy="79.67" r="11.11" class="st3"/><circle cx=".07" cy="61.69" r="14.55" class="st3"/><circle cx="14.62" cy="99.77" r="8.99" class="st3"/><circle cx="23.61" cy="108.76" r="8.99" class="st3"/><circle cx="9.06" cy="90.78" r="5.56" class="st3"/><circle cx="43.71" cy="119.87" r="11.11" class="st3"/><circle cx="42.29" cy="118.46" r="3.7" class="st3"/><circle cx="47.14" cy="119.87" r="3.43" class="st3"/><circle cx="32.6" cy="114.32" r="5.56" class="st3"/><circle cx="38.15" cy="116.8" r="2.48" class="st3"/><circle cx="108.76" cy="14.62" r="29.09" class="st3"/><circle cx="61.69" cy="-14.48" r="47.07" class="st3"/><circle cx="119.87" cy="43.71" r="11.11" class="st3"/><circle cx="108.76" cy="23.61" r="8.99" class="st3"/><circle cx="99.77" cy="14.62" r="8.99" class="st3"/><circle cx="114.32" cy="32.6" r="5.56" class="st3"/><circle cx="61.69" cy=".07" r="14.55" class="st3"/><circle cx="79.67" cy="3.5" r="11.11" class="st3"/><circle cx="81.08" cy="4.92" r="3.7" class="st3"/><circle cx="76.23" cy="3.5" r="3.43" class="st3"/><circle cx="90.78" cy="9.06" r="5.56" class="st3"/><circle cx="85.22" cy="6.57" r="2.48" class="st3"/><circle cx="14.62" cy="14.62" r="29.09" class="st3"/><circle cx="3.5" cy="43.71" r="11.11" class="st3"/><circle cx="14.62" cy="23.61" r="8.99" class="st3"/><circle cx="23.61" cy="14.62" r="8.99" class="st3"/><circle cx="9.06" cy="32.6" r="5.56" class="st3"/><circle cx="43.71" cy="3.5" r="11.11" class="st3"/><circle cx="42.29" cy="4.92" r="3.7" class="st3"/><circle cx="47.14" cy="3.5" r="3.43" class="st3"/><circle cx="32.6" cy="9.06" r="5.56" class="st3"/><circle cx="38.15" cy="6.57" r="2.48" class="st3"/><circle cx="119.87" cy="76.23" r="3.43" class="st3"/><circle cx="118.46" cy="81.08" r="3.7" class="st3"/><circle cx="118.3" cy="81.25" r="1.28" class="st3"/><circle cx="118.81" cy="79.67" r="1.06" class="st3"/><circle cx="116.8" cy="85.22" r="2.48" class="st3"/><circle cx="117.75" cy="82.74" r=".95" class="st3"/><circle cx="121.77" cy="61.69" r="4.97" class="st3"/><circle cx="121.36" cy="67.99" r="3.89" class="st3"/><circle cx="121.54" cy="63.87" r="1.35" class="st3"/><circle cx="121.59" cy="61.69" r="1.72" class="st3"/><circle cx="121.36" cy="66.78" r="1.2" class="st3"/><circle cx="121.19" cy="68.56" r="1.31" class="st3"/><circle cx="121.46" cy="65.39" r=".71" class="st3"/><circle cx="120.65" cy="72.32" r="2.03" class="st3"/><circle cx="120.7" cy="71.88" r=".67" class="st3"/><circle cx="120.53" cy="72.8" r=".66" class="st3"/><circle cx="120.97" cy="70.13" r=".89" class="st3"/><circle cx="119.87" cy="47.14" r="3.43" class="st3"/><circle cx="118.46" cy="42.29" r="3.7" class="st3"/><circle cx="118.3" cy="42.13" r="1.28" class="st3"/><circle cx="118.81" cy="43.71" r="1.06" class="st3"/><circle cx="116.8" cy="38.15" r="2.48" class="st3"/><circle cx="117.75" cy="40.64" r=".95" class="st3"/><circle cx="121.36" cy="55.39" r="3.89" class="st3"/><circle cx="121.54" cy="59.51" r="1.35" class="st3"/><circle cx="121.36" cy="56.59" r="1.2" class="st3"/><circle cx="121.19" cy="54.82" r="1.31" class="st3"/><circle cx="121.46" cy="57.98" r=".71" class="st3"/><circle cx="120.65" cy="51.06" r="2.03" class="st3"/><circle cx="120.7" cy="51.5" r=".67" class="st3"/><circle cx="120.53" cy="50.58" r=".66" class="st3"/><circle cx="120.97" cy="53.25" r=".89" class="st3"/><circle cx="101.89" cy="106.14" r="2.62" class="st3"/><circle cx="98.82" cy="108.76" r="3.07" class="st3"/><circle cx="101.21" cy="106.67" r=".8" class="st3"/><circle cx="102.1" cy="105.88" r=".89" class="st3"/><circle cx="99.77" cy="107.9" r=".86" class="st3"/><circle cx="98.71" cy="108.76" r="1.06" class="st3"/><circle cx="95.75" cy="110.98" r="2.22" class="st3"/><circle cx="96.25" cy="110.59" r=".7" class="st3"/><circle cx="95.42" cy="111.17" r=".74" class="st3"/><circle cx="97.65" cy="109.57" r=".81" class="st3"/><circle cx="108.76" cy="98.82" r="3.07" class="st3"/><circle cx="106.14" cy="101.89" r="2.62" class="st3"/><circle cx="110.98" cy="95.75" r="2.22" class="st3"/><circle cx="108.76" cy="98.71" r="1.06" class="st3"/><circle cx="107.9" cy="99.77" r=".86" class="st3"/><circle cx="109.57" cy="97.65" r=".81" class="st3"/><circle cx="105.88" cy="102.1" r=".89" class="st3"/><circle cx="106.67" cy="101.21" r=".8" class="st3"/><circle cx="104.04" cy="104.04" r="1.46" class="st3"/><circle cx="102.9" cy="105.14" r=".62" class="st3"/><circle cx="105.14" cy="102.9" r=".62" class="st3"/><circle cx="113.43" cy="91.88" r="1.78" class="st3"/><circle cx="114.67" cy="89.65" r="1.82" class="st3"/><circle cx="113.33" cy="92" r=".61" class="st3"/><circle cx="114.71" cy="89.53" r=".63" class="st3"/><circle cx="115.63" cy="87.71" r="1.17" class="st3"/><circle cx="111.17" cy="95.42" r=".74" class="st3"/><circle cx="110.59" cy="96.25" r=".7" class="st3"/><circle cx="112.32" cy="93.66" r="1.1" class="st3"/><circle cx="67.99" cy="121.36" r="3.89" class="st3"/><circle cx="61.69" cy="121.77" r="4.97" class="st3"/><circle cx="72.32" cy="120.65" r="2.03" class="st3"/><circle cx="68.56" cy="121.19" r="1.31" class="st3"/><circle cx="66.78" cy="121.36" r="1.2" class="st3"/><circle cx="70.13" cy="120.97" r=".89" class="st3"/><circle cx="61.69" cy="121.59" r="1.72" class="st3"/><circle cx="63.87" cy="121.54" r="1.35" class="st3"/><circle cx="65.39" cy="121.46" r=".71" class="st3"/><circle cx="55.39" cy="121.36" r="3.89" class="st3"/><circle cx="51.06" cy="120.65" r="2.03" class="st3"/><circle cx="54.82" cy="121.19" r="1.31" class="st3"/><circle cx="56.59" cy="121.36" r="1.2" class="st3"/><circle cx="53.25" cy="120.97" r=".89" class="st3"/><circle cx="59.51" cy="121.54" r="1.35" class="st3"/><circle cx="57.98" cy="121.46" r=".71" class="st3"/><circle cx="79.67" cy="118.81" r="1.06" class="st3"/><circle cx="81.25" cy="118.3" r="1.28" class="st3"/><circle cx="82.74" cy="117.75" r=".95" class="st3"/><circle cx="75.87" cy="119.87" r="1.17" class="st3"/><circle cx="77.38" cy="119.48" r="1.02" class="st3"/><circle cx="72.8" cy="120.53" r=".66" class="st3"/><circle cx="71.88" cy="120.7" r=".67" class="st3"/><circle cx="74.47" cy="120.19" r=".83" class="st3"/><circle cx="89.65" cy="114.67" r="1.82" class="st3"/><circle cx="91.88" cy="113.43" r="1.78" class="st3"/><circle cx="87.71" cy="115.63" r="1.17" class="st3"/><circle cx="89.53" cy="114.71" r=".63" class="st3"/><circle cx="92" cy="113.33" r=".61" class="st3"/><circle cx="93.66" cy="112.32" r="1.1" class="st3"/><circle cx="85.64" cy="116.57" r=".82" class="st3"/><circle cx="84.59" cy="117.02" r=".79" class="st3"/><circle cx="3.5" cy="76.23" r="3.43" class="st3"/><circle cx="4.92" cy="81.08" r="3.7" class="st3"/><circle cx="5.08" cy="81.25" r="1.28" class="st3"/><circle cx="4.56" cy="79.67" r="1.06" class="st3"/><circle cx="6.57" cy="85.22" r="2.48" class="st3"/><circle cx="5.63" cy="82.74" r=".95" class="st3"/><circle cx="1.6" cy="61.69" r="4.97" class="st3"/><circle cx="2.02" cy="67.99" r="3.89" class="st3"/><circle cx="1.84" cy="63.87" r="1.35" class="st3"/><circle cx="1.79" cy="61.69" r="1.72" class="st3"/><circle cx="2.02" cy="66.78" r="1.2" class="st3"/><circle cx="2.19" cy="68.56" r="1.31" class="st3"/><circle cx="1.92" cy="65.39" r=".71" class="st3"/><circle cx="2.73" cy="72.32" r="2.03" class="st3"/><circle cx="2.68" cy="71.88" r=".67" class="st3"/><circle cx="2.85" cy="72.8" r=".66" class="st3"/><circle cx="2.4" cy="70.13" r=".89" class="st3"/><circle cx="3.5" cy="47.14" r="3.43" class="st3"/><circle cx="4.92" cy="42.29" r="3.7" class="st3"/><circle cx="5.08" cy="42.13" r="1.28" class="st3"/><circle cx="4.56" cy="43.71" r="1.06" class="st3"/><circle cx="6.57" cy="38.15" r="2.48" class="st3"/><circle cx="5.63" cy="40.64" r=".95" class="st3"/><circle cx="2.02" cy="55.39" r="3.89" class="st3"/><circle cx="1.84" cy="59.51" r="1.35" class="st3"/><circle cx="2.02" cy="56.59" r="1.2" class="st3"/><circle cx="2.19" cy="54.82" r="1.31" class="st3"/><circle cx="1.92" cy="57.98" r=".71" class="st3"/><circle cx="2.73" cy="51.06" r="2.03" class="st3"/><circle cx="2.68" cy="51.5" r=".67" class="st3"/><circle cx="2.85" cy="50.58" r=".66" class="st3"/><circle cx="2.4" cy="53.25" r=".89" class="st3"/><circle cx="21.48" cy="106.14" r="2.62" class="st3"/><circle cx="24.55" cy="108.76" r="3.07" class="st3"/><circle cx="22.16" cy="106.67" r=".8" class="st3"/><circle cx="21.27" cy="105.88" r=".89" class="st3"/><circle cx="23.61" cy="107.9" r=".86" class="st3"/><circle cx="24.67" cy="108.76" r="1.06" class="st3"/><circle cx="27.63" cy="110.98" r="2.22" class="st3"/><circle cx="27.12" cy="110.59" r=".7" class="st3"/><circle cx="27.96" cy="111.17" r=".74" class="st3"/><circle cx="25.73" cy="109.57" r=".81" class="st3"/><circle cx="14.62" cy="98.82" r="3.07" class="st3"/><circle cx="17.24" cy="101.89" r="2.62" class="st3"/><circle cx="12.39" cy="95.75" r="2.22" class="st3"/><circle cx="14.62" cy="98.71" r="1.06" class="st3"/><circle cx="15.47" cy="99.77" r=".86" class="st3"/><circle cx="13.8" cy="97.65" r=".81" class="st3"/><circle cx="17.5" cy="102.1" r=".89" class="st3"/><circle cx="16.7" cy="101.21" r=".8" class="st3"/><circle cx="19.34" cy="104.04" r="1.46" class="st3"/><circle cx="20.48" cy="105.14" r=".62" class="st3"/><circle cx="18.24" cy="102.9" r=".62" class="st3"/><circle cx="9.95" cy="91.88" r="1.78" class="st3"/><circle cx="8.71" cy="89.65" r="1.82" class="st3"/><circle cx="10.05" cy="92" r=".61" class="st3"/><circle cx="8.67" cy="89.53" r=".63" class="st3"/><circle cx="7.75" cy="87.71" r="1.17" class="st3"/><circle cx="12.21" cy="95.42" r=".74" class="st3"/><circle cx="12.79" cy="96.25" r=".7" class="st3"/><circle cx="11.05" cy="93.66" r="1.1" class="st3"/><circle cx="43.71" cy="118.81" r="1.06" class="st3"/><circle cx="42.13" cy="118.3" r="1.28" class="st3"/><circle cx="40.64" cy="117.75" r=".95" class="st3"/><circle cx="47.5" cy="119.87" r="1.17" class="st3"/><circle cx="46" cy="119.48" r="1.02" class="st3"/><circle cx="50.58" cy="120.53" r=".66" class="st3"/><circle cx="51.5" cy="120.7" r=".67" class="st3"/><circle cx="48.91" cy="120.19" r=".83" class="st3"/><circle cx="33.72" cy="114.67" r="1.82" class="st3"/><circle cx="31.49" cy="113.43" r="1.78" class="st3"/><circle cx="35.67" cy="115.63" r="1.17" class="st3"/><circle cx="33.85" cy="114.71" r=".63" class="st3"/><circle cx="31.37" cy="113.33" r=".61" class="st3"/><circle cx="29.71" cy="112.32" r="1.1" class="st3"/><circle cx="37.74" cy="116.57" r=".82" class="st3"/><circle cx="38.79" cy="117.02" r=".79" class="st3"/><circle cx="101.89" cy="17.24" r="2.62" class="st3"/><circle cx="98.82" cy="14.62" r="3.07" class="st3"/><circle cx="101.21" cy="16.7" r=".8" class="st3"/><circle cx="102.1" cy="17.5" r=".89" class="st3"/><circle cx="99.77" cy="15.47" r=".86" class="st3"/><circle cx="98.71" cy="14.62" r="1.06" class="st3"/><circle cx="95.75" cy="12.39" r="2.22" class="st3"/><circle cx="96.25" cy="12.79" r=".7" class="st3"/><circle cx="95.42" cy="12.21" r=".74" class="st3"/><circle cx="97.65" cy="13.8" r=".81" class="st3"/><circle cx="108.76" cy="24.55" r="3.07" class="st3"/><circle cx="106.14" cy="21.48" r="2.62" class="st3"/><circle cx="110.98" cy="27.63" r="2.22" class="st3"/><circle cx="108.76" cy="24.67" r="1.06" class="st3"/><circle cx="107.9" cy="23.61" r=".86" class="st3"/><circle cx="109.57" cy="25.73" r=".81" class="st3"/><circle cx="105.88" cy="21.27" r=".89" class="st3"/><circle cx="106.67" cy="22.16" r=".8" class="st3"/><circle cx="104.04" cy="19.34" r="1.46" class="st3"/><circle cx="102.9" cy="18.24" r=".62" class="st3"/><circle cx="105.14" cy="20.48" r=".62" class="st3"/><circle cx="113.43" cy="31.49" r="1.78" class="st3"/><circle cx="114.67" cy="33.72" r="1.82" class="st3"/><circle cx="113.33" cy="31.37" r=".61" class="st3"/><circle cx="114.71" cy="33.85" r=".63" class="st3"/><circle cx="115.63" cy="35.67" r="1.17" class="st3"/><circle cx="111.17" cy="27.96" r=".74" class="st3"/><circle cx="110.59" cy="27.12" r=".7" class="st3"/><circle cx="112.32" cy="29.71" r="1.1" class="st3"/><circle cx="67.99" cy="2.02" r="3.89" class="st3"/><circle cx="61.69" cy="1.6" r="4.97" class="st3"/><circle cx="72.32" cy="2.73" r="2.03" class="st3"/><circle cx="68.56" cy="2.19" r="1.31" class="st3"/><circle cx="66.78" cy="2.02" r="1.2" class="st3"/><circle cx="70.13" cy="2.4" r=".89" class="st3"/><circle cx="61.69" cy="1.79" r="1.72" class="st3"/><circle cx="63.87" cy="1.84" r="1.35" class="st3"/><circle cx="65.39" cy="1.92" r=".71" class="st3"/><circle cx="55.39" cy="2.02" r="3.89" class="st3"/><circle cx="51.06" cy="2.73" r="2.03" class="st3"/><circle cx="54.82" cy="2.19" r="1.31" class="st3"/><circle cx="56.59" cy="2.02" r="1.2" class="st3"/><circle cx="53.25" cy="2.4" r=".89" class="st3"/><circle cx="59.51" cy="1.84" r="1.35" class="st3"/><circle cx="57.98" cy="1.92" r=".71" class="st3"/><circle cx="79.67" cy="4.56" r="1.06" class="st3"/><circle cx="81.25" cy="5.08" r="1.28" class="st3"/><circle cx="82.74" cy="5.63" r=".95" class="st3"/><circle cx="75.87" cy="3.5" r="1.17" class="st3"/><circle cx="77.38" cy="3.89" r="1.02" class="st3"/><circle cx="72.8" cy="2.85" r=".66" class="st3"/><circle cx="71.88" cy="2.68" r=".67" class="st3"/><circle cx="74.47" cy="3.18" r=".83" class="st3"/><circle cx="119.87" cy="75.87" r="1.17" class="st3"/><circle cx="119.48" cy="77.38" r="1.02" class="st3"/><circle cx="120.19" cy="74.47" r=".83" class="st3"/><circle cx="3.5" cy="75.87" r="1.17" class="st3"/><circle cx="3.89" cy="77.38" r="1.02" class="st3"/><circle cx="3.18" cy="74.47" r=".83" class="st3"/><circle cx="119.87" cy="47.5" r="1.17" class="st3"/><circle cx="119.48" cy="46" r="1.02" class="st3"/><circle cx="120.19" cy="48.91" r=".83" class="st3"/><circle cx="3.5" cy="47.5" r="1.17" class="st3"/><circle cx="3.89" cy="46" r="1.02" class="st3"/><circle cx="3.18" cy="48.91" r=".83" class="st3"/><circle cx="89.65" cy="8.71" r="1.82" class="st3"/><circle cx="91.88" cy="9.95" r="1.78" class="st3"/><circle cx="87.71" cy="7.75" r="1.17" class="st3"/><circle cx="89.53" cy="8.67" r=".63" class="st3"/><circle cx="92" cy="10.05" r=".61" class="st3"/><circle cx="93.66" cy="11.05" r="1.1" class="st3"/><circle cx="85.64" cy="6.8" r=".82" class="st3"/><circle cx="84.59" cy="6.36" r=".79" class="st3"/><circle cx="116.57" cy="37.74" r=".82" class="st3"/><circle cx="117.02" cy="38.79" r=".79" class="st3"/><circle cx="6.8" cy="85.64" r=".82" class="st3"/><circle cx="6.36" cy="84.59" r=".79" class="st3"/><circle cx="6.8" cy="37.74" r=".82" class="st3"/><circle cx="6.36" cy="38.79" r=".79" class="st3"/><circle cx="116.57" cy="85.64" r=".82" class="st3"/><circle cx="117.02" cy="84.59" r=".79" class="st3"/><circle cx="21.48" cy="17.24" r="2.62" class="st3"/><circle cx="24.55" cy="14.62" r="3.07" class="st3"/><circle cx="22.16" cy="16.7" r=".8" class="st3"/><circle cx="21.27" cy="17.5" r=".89" class="st3"/><circle cx="23.61" cy="15.47" r=".86" class="st3"/><circle cx="24.67" cy="14.62" r="1.06" class="st3"/><circle cx="27.63" cy="12.39" r="2.22" class="st3"/><circle cx="27.12" cy="12.79" r=".7" class="st3"/><circle cx="27.96" cy="12.21" r=".74" class="st3"/><circle cx="25.73" cy="13.8" r=".81" class="st3"/><circle cx="14.62" cy="24.55" r="3.07" class="st3"/><circle cx="17.24" cy="21.48" r="2.62" class="st3"/><circle cx="12.39" cy="27.63" r="2.22" class="st3"/><circle cx="14.62" cy="24.67" r="1.06" class="st3"/><circle cx="15.47" cy="23.61" r=".86" class="st3"/><circle cx="13.8" cy="25.73" r=".81" class="st3"/><circle cx="17.5" cy="21.27" r=".89" class="st3"/><circle cx="16.7" cy="22.16" r=".8" class="st3"/><circle cx="19.34" cy="19.34" r="1.46" class="st3"/><circle cx="20.48" cy="18.24" r=".62" class="st3"/><circle cx="18.24" cy="20.48" r=".62" class="st3"/><circle cx="9.95" cy="31.49" r="1.78" class="st3"/><circle cx="8.71" cy="33.72" r="1.82" class="st3"/><circle cx="10.05" cy="31.37" r=".61" class="st3"/><circle cx="8.67" cy="33.85" r=".63" class="st3"/><circle cx="7.75" cy="35.67" r="1.17" class="st3"/><circle cx="12.21" cy="27.96" r=".74" class="st3"/><circle cx="12.79" cy="27.12" r=".7" class="st3"/><circle cx="11.05" cy="29.71" r="1.1" class="st3"/><circle cx="43.71" cy="4.56" r="1.06" class="st3"/><circle cx="42.13" cy="5.08" r="1.28" class="st3"/><circle cx="40.64" cy="5.63" r=".95" class="st3"/><circle cx="47.5" cy="3.5" r="1.17" class="st3"/><circle cx="46" cy="3.89" r="1.02" class="st3"/><circle cx="50.58" cy="2.85" r=".66" class="st3"/><circle cx="51.5" cy="2.68" r=".67" class="st3"/><circle cx="48.91" cy="3.18" r=".83" class="st3"/><circle cx="33.72" cy="8.71" r="1.82" class="st3"/><circle cx="31.49" cy="9.95" r="1.78" class="st3"/><circle cx="35.67" cy="7.75" r="1.17" class="st3"/><circle cx="33.85" cy="8.67" r=".63" class="st3"/><circle cx="31.37" cy="10.05" r=".61" class="st3"/><circle cx="29.71" cy="11.05" r="1.1" class="st3"/><circle cx="37.74" cy="6.8" r=".82" class="st3"/><circle cx="38.79" cy="6.36" r=".79" class="st3"/><line x1="1.6" x2="121.77" y1="61.69" y2="61.69" class="st3"/><line x1="61.69" x2="61.69" y1="121.77" y2="1.6" class="st3"/></g><circle cx="61.69" cy="61.69" r="60.08" class="st4"/></g></g></svg>